<mxfile host="app.diagrams.net" modified="2021-06-04T02:00:30.192Z" agent="5.0 (Macintosh; Intel Mac OS X 10_15_1) AppleWebKit/537.36 (KHTML, like Gecko) Chrome/90.0.4430.212 Safari/537.36" etag="IwrKPZq9Azz-8ylIpzIQ" version="14.7.3" type="github">
  <diagram id="ffjJ0qXlZUPkW43VIP1P" name="Page-1">
    <mxGraphModel dx="1773" dy="557" grid="1" gridSize="10" guides="1" tooltips="1" connect="1" arrows="1" fold="1" page="1" pageScale="1" pageWidth="827" pageHeight="1169" math="0" shadow="0">
      <root>
        <mxCell id="0" />
        <mxCell id="1" parent="0" />
        <mxCell id="EPnTJ5PspRUSCG1WEt55-2" value="营业额利润" style="ellipse;whiteSpace=wrap;html=1;" parent="1" vertex="1">
          <mxGeometry x="342" y="420" width="120" height="80" as="geometry" />
        </mxCell>
        <mxCell id="EPnTJ5PspRUSCG1WEt55-3" value="门店数量" style="rounded=1;whiteSpace=wrap;html=1;fillColor=#f8cecc;strokeColor=#b85450;" parent="1" vertex="1">
          <mxGeometry x="470" y="290" width="100" height="50" as="geometry" />
        </mxCell>
        <mxCell id="EPnTJ5PspRUSCG1WEt55-4" value="单店营业销售额" style="rounded=1;whiteSpace=wrap;html=1;fillColor=#f8cecc;strokeColor=#b85450;" parent="1" vertex="1">
          <mxGeometry x="132" y="410" width="100" height="50" as="geometry" />
        </mxCell>
        <mxCell id="EPnTJ5PspRUSCG1WEt55-5" value="单店毛利率" style="rounded=1;whiteSpace=wrap;html=1;fillColor=#f8cecc;strokeColor=#b85450;" parent="1" vertex="1">
          <mxGeometry x="290" y="300" width="100" height="50" as="geometry" />
        </mxCell>
        <mxCell id="EPnTJ5PspRUSCG1WEt55-6" value="存货成本&lt;span style=&quot;color: rgba(0 , 0 , 0 , 0) ; font-family: monospace ; font-size: 0px&quot;&gt;%3CmxGraphModel%3E%3Croot%3E%3CmxCell%20id%3D%220%22%2F%3E%3CmxCell%20id%3D%221%22%20parent%3D%220%22%2F%3E%3CmxCell%20id%3D%222%22%20value%3D%22%E5%8D%95%E5%BA%97%E6%AF%9B%E5%88%A9%E7%8E%87%22%20style%3D%22rounded%3D1%3BwhiteSpace%3Dwrap%3Bhtml%3D1%3B%22%20vertex%3D%221%22%20parent%3D%221%22%3E%3CmxGeometry%20x%3D%22190%22%20y%3D%22390%22%20width%3D%22100%22%20height%3D%2250%22%20as%3D%22geometry%22%2F%3E%3C%2FmxCell%3E%3C%2Froot%3E%3C%2FmxGraphModel%3E&lt;/span&gt;" style="rounded=1;whiteSpace=wrap;html=1;fillColor=#dae8fc;strokeColor=#6c8ebf;" parent="1" vertex="1">
          <mxGeometry x="242" y="550" width="100" height="50" as="geometry" />
        </mxCell>
        <mxCell id="EPnTJ5PspRUSCG1WEt55-7" value="房租成本" style="rounded=1;whiteSpace=wrap;html=1;fillColor=#dae8fc;strokeColor=#6c8ebf;" parent="1" vertex="1">
          <mxGeometry x="520" y="535" width="100" height="50" as="geometry" />
        </mxCell>
        <mxCell id="EPnTJ5PspRUSCG1WEt55-8" value="人员成本" style="rounded=1;whiteSpace=wrap;html=1;fillColor=#dae8fc;strokeColor=#6c8ebf;" parent="1" vertex="1">
          <mxGeometry x="582" y="400" width="100" height="50" as="geometry" />
        </mxCell>
        <mxCell id="EPnTJ5PspRUSCG1WEt55-12" value="" style="endArrow=classic;html=1;exitX=0.5;exitY=1;exitDx=0;exitDy=0;fillColor=#f8cecc;strokeColor=#b85450;" parent="1" source="EPnTJ5PspRUSCG1WEt55-3" edge="1">
          <mxGeometry width="50" height="50" relative="1" as="geometry">
            <mxPoint x="352" y="500" as="sourcePoint" />
            <mxPoint x="402" y="420" as="targetPoint" />
          </mxGeometry>
        </mxCell>
        <mxCell id="EPnTJ5PspRUSCG1WEt55-13" value="" style="endArrow=classic;html=1;fillColor=#f8cecc;strokeColor=#b85450;entryX=0;entryY=0.3;entryDx=0;entryDy=0;entryPerimeter=0;exitX=1;exitY=0.5;exitDx=0;exitDy=0;" parent="1" target="EPnTJ5PspRUSCG1WEt55-2" edge="1" source="EPnTJ5PspRUSCG1WEt55-4">
          <mxGeometry width="50" height="50" relative="1" as="geometry">
            <mxPoint x="221" y="410" as="sourcePoint" />
            <mxPoint x="221" y="490" as="targetPoint" />
          </mxGeometry>
        </mxCell>
        <mxCell id="EPnTJ5PspRUSCG1WEt55-14" value="" style="endArrow=classic;html=1;fillColor=#f8cecc;strokeColor=#b85450;entryX=0.267;entryY=0.013;entryDx=0;entryDy=0;entryPerimeter=0;exitX=0.5;exitY=1;exitDx=0;exitDy=0;" parent="1" target="EPnTJ5PspRUSCG1WEt55-2" edge="1" source="EPnTJ5PspRUSCG1WEt55-5">
          <mxGeometry width="50" height="50" relative="1" as="geometry">
            <mxPoint x="222" y="550" as="sourcePoint" />
            <mxPoint x="343" y="584" as="targetPoint" />
          </mxGeometry>
        </mxCell>
        <mxCell id="EPnTJ5PspRUSCG1WEt55-15" value="" style="endArrow=classic;html=1;fillColor=#dae8fc;strokeColor=#6c8ebf;entryX=0.192;entryY=0.963;entryDx=0;entryDy=0;entryPerimeter=0;exitX=0.5;exitY=0;exitDx=0;exitDy=0;" parent="1" source="EPnTJ5PspRUSCG1WEt55-6" edge="1" target="EPnTJ5PspRUSCG1WEt55-2">
          <mxGeometry width="50" height="50" relative="1" as="geometry">
            <mxPoint x="272" y="562.96" as="sourcePoint" />
            <mxPoint x="401.96000000000004" y="499.99999999999994" as="targetPoint" />
          </mxGeometry>
        </mxCell>
        <mxCell id="EPnTJ5PspRUSCG1WEt55-16" value="" style="endArrow=classic;html=1;exitX=0.5;exitY=1;exitDx=0;exitDy=0;fillColor=#f8cecc;strokeColor=#b85450;entryX=0.25;entryY=0;entryDx=0;entryDy=0;" parent="1" source="EPnTJ5PspRUSCG1WEt55-3" target="EPnTJ5PspRUSCG1WEt55-7" edge="1">
          <mxGeometry width="50" height="50" relative="1" as="geometry">
            <mxPoint x="412" y="350" as="sourcePoint" />
            <mxPoint x="412" y="430" as="targetPoint" />
          </mxGeometry>
        </mxCell>
        <mxCell id="EPnTJ5PspRUSCG1WEt55-17" value="" style="endArrow=classic;html=1;fillColor=#dae8fc;strokeColor=#6c8ebf;entryX=0.083;entryY=0.838;entryDx=0;entryDy=0;entryPerimeter=0;exitX=0;exitY=0.5;exitDx=0;exitDy=0;" parent="1" source="EPnTJ5PspRUSCG1WEt55-7" edge="1">
          <mxGeometry width="50" height="50" relative="1" as="geometry">
            <mxPoint x="572" y="540" as="sourcePoint" />
            <mxPoint x="462.00000000000006" y="470" as="targetPoint" />
          </mxGeometry>
        </mxCell>
        <mxCell id="EPnTJ5PspRUSCG1WEt55-18" value="" style="endArrow=classic;html=1;fillColor=#dae8fc;strokeColor=#6c8ebf;exitX=0;exitY=0.5;exitDx=0;exitDy=0;entryX=1.017;entryY=0.388;entryDx=0;entryDy=0;entryPerimeter=0;" parent="1" source="EPnTJ5PspRUSCG1WEt55-8" target="EPnTJ5PspRUSCG1WEt55-2" edge="1">
          <mxGeometry width="50" height="50" relative="1" as="geometry">
            <mxPoint x="592" y="555" as="sourcePoint" />
            <mxPoint x="462" y="470" as="targetPoint" />
          </mxGeometry>
        </mxCell>
        <mxCell id="EPnTJ5PspRUSCG1WEt55-19" value="客单价" style="rounded=1;whiteSpace=wrap;html=1;fillColor=#f8cecc;strokeColor=#b85450;" parent="1" vertex="1">
          <mxGeometry x="62" y="300" width="80" height="40" as="geometry" />
        </mxCell>
        <mxCell id="EPnTJ5PspRUSCG1WEt55-20" value="顾客数量" style="rounded=1;whiteSpace=wrap;html=1;fillColor=#f8cecc;strokeColor=#b85450;" parent="1" vertex="1">
          <mxGeometry x="175" y="310" width="80" height="40" as="geometry" />
        </mxCell>
        <mxCell id="EPnTJ5PspRUSCG1WEt55-21" value="" style="endArrow=classic;html=1;fillColor=#f8cecc;strokeColor=#b85450;entryX=0.5;entryY=0;entryDx=0;entryDy=0;" parent="1" target="EPnTJ5PspRUSCG1WEt55-4" edge="1">
          <mxGeometry width="50" height="50" relative="1" as="geometry">
            <mxPoint x="101" y="340" as="sourcePoint" />
            <mxPoint x="222" y="374" as="targetPoint" />
          </mxGeometry>
        </mxCell>
        <mxCell id="EPnTJ5PspRUSCG1WEt55-22" value="" style="endArrow=classic;html=1;fillColor=#f8cecc;strokeColor=#b85450;exitX=0.375;exitY=0.975;exitDx=0;exitDy=0;exitPerimeter=0;" parent="1" source="EPnTJ5PspRUSCG1WEt55-20" edge="1" target="EPnTJ5PspRUSCG1WEt55-4">
          <mxGeometry width="50" height="50" relative="1" as="geometry">
            <mxPoint x="232" y="340" as="sourcePoint" />
            <mxPoint x="180" y="390" as="targetPoint" />
          </mxGeometry>
        </mxCell>
        <mxCell id="EPnTJ5PspRUSCG1WEt55-23" value="顾客平均购买数量&lt;span style=&quot;color: rgba(0 , 0 , 0 , 0) ; font-family: monospace ; font-size: 0px&quot;&gt;%3CmxGraphModel%3E%3Croot%3E%3CmxCell%20id%3D%220%22%2F%3E%3CmxCell%20id%3D%221%22%20parent%3D%220%22%2F%3E%3CmxCell%20id%3D%222%22%20value%3D%22%E5%AE%A2%E5%8D%95%E4%BB%B7%22%20style%3D%22rounded%3D1%3BwhiteSpace%3Dwrap%3Bhtml%3D1%3BfillColor%3D%23f8cecc%3BstrokeColor%3D%23b85450%3B%22%20vertex%3D%221%22%20parent%3D%221%22%3E%3CmxGeometry%20x%3D%2260%22%20y%3D%22110%22%20width%3D%2280%22%20height%3D%2240%22%20as%3D%22geometry%22%2F%3E%3C%2FmxCell%3E%3C%2Froot%3E%3C%2FmxGraphModel%3E&lt;/span&gt;" style="rounded=1;whiteSpace=wrap;html=1;fillColor=#f8cecc;strokeColor=#b85450;" parent="1" vertex="1">
          <mxGeometry x="20" y="210" width="80" height="40" as="geometry" />
        </mxCell>
        <mxCell id="EPnTJ5PspRUSCG1WEt55-24" value="购买商品平均单价" style="rounded=1;whiteSpace=wrap;html=1;fillColor=#f8cecc;strokeColor=#b85450;" parent="1" vertex="1">
          <mxGeometry x="116" y="210" width="80" height="40" as="geometry" />
        </mxCell>
        <mxCell id="EPnTJ5PspRUSCG1WEt55-25" value="" style="endArrow=classic;html=1;fillColor=#f8cecc;strokeColor=#b85450;exitX=0.5;exitY=1;exitDx=0;exitDy=0;" parent="1" source="EPnTJ5PspRUSCG1WEt55-23" edge="1">
          <mxGeometry width="50" height="50" relative="1" as="geometry">
            <mxPoint x="111" y="350" as="sourcePoint" />
            <mxPoint x="102" y="300" as="targetPoint" />
          </mxGeometry>
        </mxCell>
        <mxCell id="EPnTJ5PspRUSCG1WEt55-26" value="" style="endArrow=classic;html=1;fillColor=#f8cecc;strokeColor=#b85450;exitX=0.425;exitY=1.025;exitDx=0;exitDy=0;exitPerimeter=0;entryX=0.6;entryY=0;entryDx=0;entryDy=0;entryPerimeter=0;" parent="1" source="EPnTJ5PspRUSCG1WEt55-24" target="EPnTJ5PspRUSCG1WEt55-19" edge="1">
          <mxGeometry width="50" height="50" relative="1" as="geometry">
            <mxPoint x="72" y="260" as="sourcePoint" />
            <mxPoint x="112" y="310" as="targetPoint" />
          </mxGeometry>
        </mxCell>
        <mxCell id="EPnTJ5PspRUSCG1WEt55-27" value="客流量&lt;span style=&quot;color: rgba(0 , 0 , 0 , 0) ; font-family: monospace ; font-size: 0px&quot;&gt;%3CmxGraphModel%3E%3Croot%3E%3CmxCell%20id%3D%220%22%2F%3E%3CmxCell%20id%3D%221%22%20parent%3D%220%22%2F%3E%3CmxCell%20id%3D%222%22%20value%3D%22%E8%B4%AD%E4%B9%B0%E5%95%86%E5%93%81%E5%B9%B3%E5%9D%87%E5%8D%95%E4%BB%B7%22%20style%3D%22rounded%3D1%3BwhiteSpace%3Dwrap%3Bhtml%3D1%3BfillColor%3D%23f8cecc%3BstrokeColor%3D%23b85450%3B%22%20vertex%3D%221%22%20parent%3D%221%22%3E%3CmxGeometry%20x%3D%22128%22%20y%3D%2220%22%20width%3D%2280%22%20height%3D%2240%22%20as%3D%22geometry%22%2F%3E%3C%2FmxCell%3E%3C%2Froot%3E%3C%2FmxGraphModel%3E&lt;/span&gt;" style="rounded=1;whiteSpace=wrap;html=1;fillColor=#f8cecc;strokeColor=#b85450;" parent="1" vertex="1">
          <mxGeometry x="224" y="210" width="80" height="40" as="geometry" />
        </mxCell>
        <mxCell id="EPnTJ5PspRUSCG1WEt55-28" value="购买率" style="rounded=1;whiteSpace=wrap;html=1;fillColor=#f8cecc;strokeColor=#b85450;" parent="1" vertex="1">
          <mxGeometry x="322" y="210" width="80" height="40" as="geometry" />
        </mxCell>
        <mxCell id="EPnTJ5PspRUSCG1WEt55-29" value="" style="endArrow=classic;html=1;fillColor=#f8cecc;strokeColor=#b85450;exitX=0.5;exitY=1;exitDx=0;exitDy=0;entryX=0.5;entryY=0;entryDx=0;entryDy=0;" parent="1" source="EPnTJ5PspRUSCG1WEt55-27" target="EPnTJ5PspRUSCG1WEt55-20" edge="1">
          <mxGeometry width="50" height="50" relative="1" as="geometry">
            <mxPoint x="160" y="261" as="sourcePoint" />
            <mxPoint x="120" y="310" as="targetPoint" />
          </mxGeometry>
        </mxCell>
        <mxCell id="EPnTJ5PspRUSCG1WEt55-30" value="" style="endArrow=classic;html=1;fillColor=#f8cecc;strokeColor=#b85450;exitX=0.5;exitY=1;exitDx=0;exitDy=0;entryX=0.613;entryY=0;entryDx=0;entryDy=0;entryPerimeter=0;" parent="1" source="EPnTJ5PspRUSCG1WEt55-28" target="EPnTJ5PspRUSCG1WEt55-20" edge="1">
          <mxGeometry width="50" height="50" relative="1" as="geometry">
            <mxPoint x="170" y="271" as="sourcePoint" />
            <mxPoint x="130" y="320" as="targetPoint" />
          </mxGeometry>
        </mxCell>
        <mxCell id="EPnTJ5PspRUSCG1WEt55-32" value="门店类型" style="rounded=1;whiteSpace=wrap;html=1;fillColor=#d5e8d4;strokeColor=#82b366;" parent="1" vertex="1">
          <mxGeometry x="682" y="540" width="80" height="40" as="geometry" />
        </mxCell>
        <mxCell id="EPnTJ5PspRUSCG1WEt55-33" value="" style="endArrow=classic;startArrow=classic;html=1;exitX=1;exitY=0.5;exitDx=0;exitDy=0;entryX=0;entryY=0.5;entryDx=0;entryDy=0;" parent="1" source="EPnTJ5PspRUSCG1WEt55-7" target="EPnTJ5PspRUSCG1WEt55-32" edge="1">
          <mxGeometry width="50" height="50" relative="1" as="geometry">
            <mxPoint x="432" y="510" as="sourcePoint" />
            <mxPoint x="482" y="460" as="targetPoint" />
          </mxGeometry>
        </mxCell>
        <mxCell id="EPnTJ5PspRUSCG1WEt55-34" value="会员数量" style="rounded=1;whiteSpace=wrap;html=1;fillColor=#f8cecc;strokeColor=#b85450;" parent="1" vertex="1">
          <mxGeometry x="222" y="130" width="80" height="40" as="geometry" />
        </mxCell>
        <mxCell id="EPnTJ5PspRUSCG1WEt55-35" value="" style="endArrow=classic;startArrow=classic;html=1;fillColor=#f8cecc;strokeColor=#b85450;" parent="1" source="EPnTJ5PspRUSCG1WEt55-27" edge="1">
          <mxGeometry width="50" height="50" relative="1" as="geometry">
            <mxPoint x="214" y="220" as="sourcePoint" />
            <mxPoint x="264" y="170" as="targetPoint" />
          </mxGeometry>
        </mxCell>
        <mxCell id="EPnTJ5PspRUSCG1WEt55-36" value="" style="endArrow=classic;html=1;fillColor=#f8cecc;strokeColor=#b85450;exitX=0.5;exitY=1;exitDx=0;exitDy=0;entryX=0.5;entryY=0;entryDx=0;entryDy=0;" parent="1" source="EPnTJ5PspRUSCG1WEt55-34" target="EPnTJ5PspRUSCG1WEt55-28" edge="1">
          <mxGeometry width="50" height="50" relative="1" as="geometry">
            <mxPoint x="372" y="260" as="sourcePoint" />
            <mxPoint x="273.03999999999996" y="305" as="targetPoint" />
          </mxGeometry>
        </mxCell>
        <mxCell id="EPnTJ5PspRUSCG1WEt55-37" value="促销活动" style="rounded=1;whiteSpace=wrap;html=1;fillColor=#f8cecc;strokeColor=#b85450;" parent="1" vertex="1">
          <mxGeometry x="95" y="80" width="80" height="40" as="geometry" />
        </mxCell>
        <mxCell id="EPnTJ5PspRUSCG1WEt55-38" value="" style="endArrow=classic;html=1;fillColor=#f8cecc;strokeColor=#b85450;exitX=0.5;exitY=1;exitDx=0;exitDy=0;" parent="1" source="EPnTJ5PspRUSCG1WEt55-37" edge="1">
          <mxGeometry width="50" height="50" relative="1" as="geometry">
            <mxPoint x="272" y="180" as="sourcePoint" />
            <mxPoint x="262" y="210" as="targetPoint" />
          </mxGeometry>
        </mxCell>
        <mxCell id="EPnTJ5PspRUSCG1WEt55-39" value="" style="endArrow=classic;html=1;fillColor=#f8cecc;strokeColor=#b85450;exitX=0.5;exitY=1;exitDx=0;exitDy=0;entryX=0.5;entryY=0;entryDx=0;entryDy=0;" parent="1" source="EPnTJ5PspRUSCG1WEt55-37" target="EPnTJ5PspRUSCG1WEt55-40" edge="1">
          <mxGeometry width="50" height="50" relative="1" as="geometry">
            <mxPoint x="272" y="180" as="sourcePoint" />
            <mxPoint x="372" y="220" as="targetPoint" />
          </mxGeometry>
        </mxCell>
        <mxCell id="EPnTJ5PspRUSCG1WEt55-40" value="商品让利率" style="rounded=1;whiteSpace=wrap;html=1;fillColor=#f8cecc;strokeColor=#b85450;" parent="1" vertex="1">
          <mxGeometry x="70" y="150" width="80" height="40" as="geometry" />
        </mxCell>
        <mxCell id="EPnTJ5PspRUSCG1WEt55-41" value="" style="endArrow=classic;html=1;entryX=0.5;entryY=0;entryDx=0;entryDy=0;exitX=0.5;exitY=1;exitDx=0;exitDy=0;fillColor=#dae8fc;strokeColor=#6c8ebf;" parent="1" source="EPnTJ5PspRUSCG1WEt55-40" target="EPnTJ5PspRUSCG1WEt55-24" edge="1">
          <mxGeometry width="50" height="50" relative="1" as="geometry">
            <mxPoint x="-18" y="170" as="sourcePoint" />
            <mxPoint x="32" y="120" as="targetPoint" />
          </mxGeometry>
        </mxCell>
        <mxCell id="EPnTJ5PspRUSCG1WEt55-42" value="商品SKU" style="rounded=1;whiteSpace=wrap;html=1;fillColor=#f8cecc;strokeColor=#b85450;" parent="1" vertex="1">
          <mxGeometry x="15" y="450" width="80" height="40" as="geometry" />
        </mxCell>
        <mxCell id="EPnTJ5PspRUSCG1WEt55-43" value="" style="endArrow=classic;html=1;fillColor=#f8cecc;strokeColor=#b85450;entryX=0;entryY=0;entryDx=0;entryDy=0;exitX=0.5;exitY=1;exitDx=0;exitDy=0;entryPerimeter=0;" parent="1" source="EPnTJ5PspRUSCG1WEt55-42" target="EPnTJ5PspRUSCG1WEt55-6" edge="1">
          <mxGeometry width="50" height="50" relative="1" as="geometry">
            <mxPoint x="111" y="350" as="sourcePoint" />
            <mxPoint x="182" y="400" as="targetPoint" />
          </mxGeometry>
        </mxCell>
        <mxCell id="EPnTJ5PspRUSCG1WEt55-44" value="" style="endArrow=classic;html=1;fillColor=#f8cecc;strokeColor=#b85450;entryX=0;entryY=1;entryDx=0;entryDy=0;exitX=0.5;exitY=0;exitDx=0;exitDy=0;" parent="1" source="EPnTJ5PspRUSCG1WEt55-42" target="EPnTJ5PspRUSCG1WEt55-27" edge="1">
          <mxGeometry width="50" height="50" relative="1" as="geometry">
            <mxPoint x="32" y="420" as="sourcePoint" />
            <mxPoint x="362" y="640" as="targetPoint" />
          </mxGeometry>
        </mxCell>
        <mxCell id="EPnTJ5PspRUSCG1WEt55-45" value="" style="endArrow=classic;html=1;fillColor=#f8cecc;strokeColor=#b85450;exitX=0.5;exitY=1;exitDx=0;exitDy=0;entryX=0.35;entryY=-0.075;entryDx=0;entryDy=0;entryPerimeter=0;" parent="1" source="EPnTJ5PspRUSCG1WEt55-40" target="EPnTJ5PspRUSCG1WEt55-27" edge="1">
          <mxGeometry width="50" height="50" relative="1" as="geometry">
            <mxPoint x="145" y="130" as="sourcePoint" />
            <mxPoint x="272" y="220" as="targetPoint" />
          </mxGeometry>
        </mxCell>
        <mxCell id="EPnTJ5PspRUSCG1WEt55-46" value="库存周转天数" style="rounded=1;whiteSpace=wrap;html=1;fillColor=#dae8fc;strokeColor=#6c8ebf;" parent="1" vertex="1">
          <mxGeometry x="142" y="640" width="80" height="40" as="geometry" />
        </mxCell>
        <mxCell id="EPnTJ5PspRUSCG1WEt55-47" value="" style="endArrow=classic;html=1;fillColor=#f8cecc;strokeColor=#b85450;exitX=1;exitY=0.5;exitDx=0;exitDy=0;" parent="1" source="EPnTJ5PspRUSCG1WEt55-46" edge="1" target="EPnTJ5PspRUSCG1WEt55-6">
          <mxGeometry width="50" height="50" relative="1" as="geometry">
            <mxPoint x="592" y="555" as="sourcePoint" />
            <mxPoint x="352" y="660" as="targetPoint" />
          </mxGeometry>
        </mxCell>
        <mxCell id="EPnTJ5PspRUSCG1WEt55-48" value="" style="endArrow=classic;html=1;exitX=0;exitY=0;exitDx=0;exitDy=0;entryX=0.4;entryY=1;entryDx=0;entryDy=0;entryPerimeter=0;" parent="1" source="EPnTJ5PspRUSCG1WEt55-46" edge="1" target="EPnTJ5PspRUSCG1WEt55-42">
          <mxGeometry width="50" height="50" relative="1" as="geometry">
            <mxPoint x="232" y="680" as="sourcePoint" />
            <mxPoint x="45" y="490" as="targetPoint" />
          </mxGeometry>
        </mxCell>
        <mxCell id="EPnTJ5PspRUSCG1WEt55-49" value="" style="endArrow=classic;html=1;fillColor=#f8cecc;strokeColor=#b85450;exitX=0.25;exitY=1;exitDx=0;exitDy=0;entryX=0.5;entryY=0;entryDx=0;entryDy=0;" parent="1" source="EPnTJ5PspRUSCG1WEt55-40" target="EPnTJ5PspRUSCG1WEt55-23" edge="1">
          <mxGeometry width="50" height="50" relative="1" as="geometry">
            <mxPoint x="145" y="130" as="sourcePoint" />
            <mxPoint x="112" y="150" as="targetPoint" />
          </mxGeometry>
        </mxCell>
        <mxCell id="3slzbdRkKsX0dB3qg9cb-1" value="" style="endArrow=classic;html=1;fillColor=#dae8fc;strokeColor=#6c8ebf;entryX=0.25;entryY=1;entryDx=0;entryDy=0;" edge="1" parent="1" target="EPnTJ5PspRUSCG1WEt55-4">
          <mxGeometry width="50" height="50" relative="1" as="geometry">
            <mxPoint x="157" y="640" as="sourcePoint" />
            <mxPoint x="55" y="503" as="targetPoint" />
          </mxGeometry>
        </mxCell>
        <mxCell id="3slzbdRkKsX0dB3qg9cb-2" value="" style="endArrow=classic;html=1;fillColor=#dae8fc;strokeColor=#6c8ebf;entryX=0.3;entryY=0;entryDx=0;entryDy=0;exitX=0.75;exitY=1;exitDx=0;exitDy=0;entryPerimeter=0;" edge="1" parent="1" source="EPnTJ5PspRUSCG1WEt55-24" target="EPnTJ5PspRUSCG1WEt55-5">
          <mxGeometry width="50" height="50" relative="1" as="geometry">
            <mxPoint x="190" y="250" as="sourcePoint" />
            <mxPoint x="377" y="310" as="targetPoint" />
          </mxGeometry>
        </mxCell>
        <mxCell id="3slzbdRkKsX0dB3qg9cb-3" value="商品联购率" style="rounded=1;whiteSpace=wrap;html=1;fillColor=#f8cecc;strokeColor=#b85450;" vertex="1" parent="1">
          <mxGeometry x="-60" y="300" width="80" height="40" as="geometry" />
        </mxCell>
        <mxCell id="3slzbdRkKsX0dB3qg9cb-4" value="" style="endArrow=classic;html=1;fillColor=#f8cecc;strokeColor=#b85450;entryX=0.5;entryY=1;entryDx=0;entryDy=0;exitX=0.5;exitY=0;exitDx=0;exitDy=0;" edge="1" parent="1" source="EPnTJ5PspRUSCG1WEt55-42" target="3slzbdRkKsX0dB3qg9cb-3">
          <mxGeometry width="50" height="50" relative="1" as="geometry">
            <mxPoint x="65" y="460" as="sourcePoint" />
            <mxPoint x="234" y="260" as="targetPoint" />
          </mxGeometry>
        </mxCell>
        <mxCell id="3slzbdRkKsX0dB3qg9cb-5" value="" style="endArrow=classic;html=1;fillColor=#f8cecc;strokeColor=#b85450;entryX=0.25;entryY=1;entryDx=0;entryDy=0;exitX=0.913;exitY=-0.075;exitDx=0;exitDy=0;exitPerimeter=0;" edge="1" parent="1" source="3slzbdRkKsX0dB3qg9cb-3" target="EPnTJ5PspRUSCG1WEt55-23">
          <mxGeometry width="50" height="50" relative="1" as="geometry">
            <mxPoint x="65" y="460" as="sourcePoint" />
            <mxPoint x="-10" y="350" as="targetPoint" />
          </mxGeometry>
        </mxCell>
        <mxCell id="3slzbdRkKsX0dB3qg9cb-6" value="" style="endArrow=classic;html=1;fillColor=#f8cecc;strokeColor=#b85450;exitX=0;exitY=0.5;exitDx=0;exitDy=0;entryX=0.25;entryY=0;entryDx=0;entryDy=0;entryPerimeter=0;" edge="1" parent="1" source="EPnTJ5PspRUSCG1WEt55-37" target="3slzbdRkKsX0dB3qg9cb-3">
          <mxGeometry width="50" height="50" relative="1" as="geometry">
            <mxPoint x="92" y="190" as="sourcePoint" />
            <mxPoint x="65" y="220" as="targetPoint" />
          </mxGeometry>
        </mxCell>
      </root>
    </mxGraphModel>
  </diagram>
</mxfile>
